# xmcd
#
# Track frame offsets:
#	150
#	12886
#	26288
#	46312
#	55438
#	68569
#	85747
#	100063
#	113212
#	130678
#	142534
#	156537
#	170141
#	190959
#	207786
#	228413
#
# Disc length: 3080 seconds
#
# Revision: 1
# Processed by: cddbd v1.5.1PL0 Copyright (c) Steve Scherf et al.
# Submitted via: audiograbber 1.83.01
#
DISCID=cd0c0610
DTITLE=Bluestreak - First Impression
DYEAR=2004
DGENRE=Bluegrass
TTITLE0=The Gold Rush is Over
TTITLE1=Maples Shade
TTITLE2=On Hobo's Wings
TTITLE3=The Sooner the Quicker
TTITLE4=Bluestreak
TTITLE5=He Showed Me the Ropes
TTITLE6=Stray Dogs and Alley Cats
TTITLE7=She's a Wild One
TTITLE8=Malpeque by the Sea
TTITLE9=Running Late
TTITLE10=Heart and Soul
TTITLE11=Pining Over You
TTITLE12=You're Not Alone
TTITLE13=Copperhead Road
TTITLE14=Folsom Prison Blues
TTITLE15=The Band Says Thanks
EXTD=
EXTT0=
EXTT1=
EXTT2=
EXTT3=
EXTT4=
EXTT5=
EXTT6=
EXTT7=
EXTT8=
EXTT9=
EXTT10=
EXTT11=
EXTT12=
EXTT13=
EXTT14=
EXTT15=
PLAYORDER=
